<svg width="24" height="25" viewBox="0 0 24 25" fill="none" xmlns="http://www.w3.org/2000/svg">
<path fill-rule="evenodd" clip-rule="evenodd" d="M21.7499 2.90576C21.9488 2.90576 22.1396 2.98478 22.2802 3.12543C22.4209 3.26608 22.4999 3.45685 22.4999 3.65576V10.8558C22.4999 11.3482 22.4029 11.8359 22.2144 12.2908C22.026 12.7458 21.7497 13.1592 21.4015 13.5074C21.0533 13.8556 20.6399 14.1319 20.1849 14.3203C19.73 14.5088 19.2423 14.6058 18.7499 14.6058H4.06038L9.08088 19.6248C9.22171 19.7656 9.30082 19.9566 9.30082 20.1558C9.30082 20.3549 9.22171 20.5459 9.08088 20.6868C8.94005 20.8276 8.74904 20.9067 8.54988 20.9067C8.35071 20.9067 8.15971 20.8276 8.01888 20.6868L1.71888 14.3868C1.64903 14.3171 1.59362 14.2343 1.55581 14.1432C1.518 14.0521 1.49854 13.9544 1.49854 13.8558C1.49854 13.7571 1.518 13.6594 1.55581 13.5683C1.59362 13.4772 1.64903 13.3944 1.71888 13.3248L7.71888 7.32476C7.85971 7.18393 8.05071 7.10481 8.24988 7.10481C8.44904 7.10481 8.64005 7.18393 8.78088 7.32476C8.92171 7.46559 9.00082 7.6566 9.00082 7.85576C9.00082 8.05493 8.92171 8.24593 8.78088 8.38676L4.06038 13.1058H18.7499C19.3466 13.1058 19.9189 12.8687 20.3409 12.4468C20.7628 12.0248 20.9999 11.4525 20.9999 10.8558V3.65576C20.9999 3.45685 21.0789 3.26608 21.2195 3.12543C21.3602 2.98478 21.551 2.90576 21.7499 2.90576Z" fill="#2D5D83"/>
</svg>
