<svg width="25" height="24" viewBox="0 0 25 24" fill="none" xmlns="http://www.w3.org/2000/svg">
<g clip-path="url(#clip0_356_595)">
<path d="M16.685 19.368L14.264 16.9455C13.3278 17.2802 12.3157 17.3422 11.3456 17.1243C10.3755 16.9063 9.48729 16.4173 8.78423 15.7143C8.08117 15.0112 7.59221 14.123 7.37424 13.1529C7.15628 12.1828 7.21827 11.1707 7.553 10.2345L4.463 7.1445C1.907 9.417 0.5 12 0.5 12C0.5 12 5 20.25 12.5 20.25C13.9406 20.245 15.3649 19.9448 16.685 19.368V19.368ZM8.315 4.632C9.63508 4.05514 11.0594 3.75496 12.5 3.75C20 3.75 24.5 12 24.5 12C24.5 12 23.0915 14.5815 20.5385 16.857L17.4455 13.764C17.7802 12.8278 17.8422 11.8157 17.6243 10.8456C17.4063 9.87554 16.9173 8.98729 16.2143 8.28423C15.5112 7.58117 14.623 7.09221 13.6529 6.87424C12.6828 6.65628 11.6707 6.71827 10.7345 7.053L8.315 4.6335V4.632Z" fill="#2D5D83"/>
<path d="M8.78783 11.469C8.70532 12.0455 8.7582 12.6332 8.94228 13.1857C9.12636 13.7382 9.43657 14.2402 9.84835 14.652C10.2601 15.0638 10.7621 15.374 11.3146 15.5581C11.8671 15.7421 12.4549 15.795 13.0313 15.7125L8.78633 11.469H8.78783ZM16.2128 12.531L11.9693 8.286C12.5458 8.20349 13.1336 8.25637 13.686 8.44045C14.2385 8.62452 14.7405 8.93474 15.1523 9.34652C15.5641 9.7583 15.8743 10.2603 16.0584 10.8128C16.2425 11.3653 16.2953 11.953 16.2128 12.5295V12.531Z" fill="#2D5D83"/>
<path fill-rule="evenodd" clip-rule="evenodd" d="M20.9697 21.531L2.96973 3.53099L4.03173 2.46899L22.0317 20.469L20.9697 21.531Z" fill="#2D5D83"/>
</g>
<defs>
<clipPath id="clip0_356_595">
<rect width="24" height="24" fill="white" transform="translate(0.5)"/>
</clipPath>
</defs>
</svg>
